inDegrees=no
num_controls=7
num_derivatives=13
num_iterations=130
num_multipliers=7
num_parameters=0
num_slacks=7
num_states=26
objective=0.502735
objective_accelerations=0.006800
objective_balance=0.003170
objective_effort=0.011088
objective_height=0.475433
objective_ligament=0.006243
solver_duration=1825.898819
status=Solve_Succeeded
success=true
DataType=double
version=3
OpenSimVersion=4.5
endheader
time	/jointset/ground_pelvis/pelvis_tilt/value	/jointset/ground_pelvis/pelvis_tx/value	/jointset/ground_pelvis/pelvis_ty/value	/jointset/hip_l/hip_flexion_l/value	/jointset/hip_l/hip_adduction_l/value	/jointset/hip_l/hip_rotation_l/value	/jointset/back/lumbar_extension/value	/jointset/patellofemoral_l/patellar_flexion_l/value	/jointset/knee_l/knee_flexion_l/value	/jointset/knee_l/knee_adduction_l/value	/jointset/knee_l/knee_rotation_l/value	/jointset/ankle_l/ankle_angle_l/value	/jointset/subtalar_l/subtalar_angle_l/value	/jointset/ground_pelvis/pelvis_tilt/speed	/jointset/ground_pelvis/pelvis_tx/speed	/jointset/ground_pelvis/pelvis_ty/speed	/jointset/hip_l/hip_flexion_l/speed	/jointset/hip_l/hip_adduction_l/speed	/jointset/hip_l/hip_rotation_l/speed	/jointset/back/lumbar_extension/speed	/jointset/patellofemoral_l/patellar_flexion_l/speed	/jointset/knee_l/knee_flexion_l/speed	/jointset/knee_l/knee_adduction_l/speed	/jointset/knee_l/knee_rotation_l/speed	/jointset/ankle_l/ankle_angle_l/speed	/jointset/subtalar_l/subtalar_angle_l/speed	/forceset/tau_hip_flexion_l	/forceset/tau_hip_adduction_l	/forceset/tau_hip_rotation_l	/forceset/tau_knee_flexion_l	/forceset/tau_ankle_angle_l	/forceset/tau_subtalar_angle_l	/forceset/tau_lumbar_extension	lambda_cid13_p0	lambda_cid13_p1	lambda_cid13_p2	lambda_cid13_p3	lambda_cid13_p4	lambda_cid13_p5	lambda_cid14_p0	/jointset/ground_pelvis/pelvis_tilt/accel	/jointset/ground_pelvis/pelvis_tx/accel	/jointset/ground_pelvis/pelvis_ty/accel	/jointset/hip_l/hip_flexion_l/accel	/jointset/hip_l/hip_adduction_l/accel	/jointset/hip_l/hip_rotation_l/accel	/jointset/back/lumbar_extension/accel	/jointset/patellofemoral_l/patellar_flexion_l/accel	/jointset/knee_l/knee_flexion_l/accel	/jointset/knee_l/knee_adduction_l/accel	/jointset/knee_l/knee_rotation_l/accel	/jointset/ankle_l/ankle_angle_l/accel	/jointset/subtalar_l/subtalar_angle_l/accel	gamma_cid13_p0	gamma_cid13_p1	gamma_cid13_p2	gamma_cid13_p3	gamma_cid13_p4	gamma_cid13_p5	gamma_cid14_p0
1	0.07689470121502417	0.03228188436293025	0.9253658070433316	0.2297718048899035	-0.3004099991318748	-0.2884989086049038	-0.7486230968597487	0.2826663339405025	0.2826663339403908	-0.1742972144382477	-0.1744320845239563	-0.002394360903259784	-0.005204176615989948	0.1150550710031391	0.04409604857980588	0.02731594490627371	-0.2772583584076046	0.02267254406646084	-0.0610686273805424	0.006676590364716539	-0.1533195813894062	-0.1533195813894112	0.0006684890674961835	4.695237932797462e-05	0.006424639481055447	0.02636858469623477	-0.1460360794174929	0.04390918739722372	0.002545276619562904	-0.07806525581594741	0.04002212791764782	0.02761006209297226	0.2551967725909908	-33.2162422242432	-9.946588123095212	5.439366935892166	0.9483690839498823	-716.803783135823	-73.1360178787489	-23.53092252923541	-0.1735607462208513	0.2146149186147432	0.04396452487900414	-0.3961173376668865	0.08099184486151552	-0.2167657032854484	1.467585155293525	-0.5525996466371791	-0.5525996466371991	-0.01005902250821876	0.001438966688683683	0.006981353705382701	0.08911271834077363	-3.922624477978585e-09	2.452898410999312e-09	6.884554549439563e-09	3.334737665410094e-09	-1.56189050980107e-08	1.749602281162358e-10	-1.220153724823431e-09
1.01	0.07803638146422801	0.0327335291617387	0.9256411029795801	0.2269799852485282	-0.3001791740787703	-0.2891204860940049	-0.7484829074142578	0.2811059660759682	0.2811059660760137	-0.1742907830824051	-0.1744317093687836	-0.002329632756166612	-0.004935936929670245	0.1132761076624901	0.04623022838076443	0.02774043795647243	-0.281090187731746	0.02349345584189851	-0.06324364188036034	0.02135434801823865	-0.1587456308080877	-0.1587456308080861	0.0006203460093917126	2.883139220109932e-05	0.006520169001031887	0.02728011410499229	-0.1451037306406327	0.04381882899569128	0.002509520509735994	-0.07774023956036057	0.03965268551310966	0.02746940716519768	0.2545551027957162	-33.32418196257973	-9.87733912787966	5.440590884870004	0.9999060093460457	-716.5895795879222	-73.12147290932201	-23.51736661546011	-0.180794946345122	0.2124177808169547	0.04126787448674851	-0.3744088551803794	0.0827888265458544	-0.2173861131316897	1.466828463009334	-0.5363532380904316	-0.5363532380895067	-0.001806586895462623	-0.003323469667902718	0.01071534609222365	0.09228611445502942	-4.019666678179963e-09	2.657817349426506e-09	6.999742895700174e-09	3.449339875544358e-09	-1.581084481679e-08	2.817718034472343e-10	-1.224840153531386e-09
1.02	0.07916012591635535	0.03320643541255238	0.9259205590822099	0.2241503086888379	-0.2999401103113786	-0.2897637170860635	-0.7481961489137045	0.2794915885875239	0.279491588587736	-0.1742847560850244	-0.1744314925911444	-0.002263973994884052	-0.004658559336800423	0.1114679115875077	0.04834833898084827	0.02814797818252624	-0.284829742071602	0.02432028692377012	-0.06539932797224621	0.0359904013768796	-0.1641215061710397	-0.1641215061710315	0.0005876173739327832	1.52768748943008e-05	0.00661076231894648	0.02819616600622087	-0.1441713818637332	0.04372847059416379	0.002473764399993956	-0.07741522330475427	0.03928324310858472	0.02732875223743157	0.2539134330004616	-33.43599082378523	-9.807666233278999	5.442036867086461	1.053774630095601	-716.4362690778631	-73.11203425460582	-23.50307758014453	-0.1794072930875574	0.2114010784398211	0.04057396005002384	-0.3776623408097909	0.08217570614829244	-0.2129000216990286	1.459244296317268	-0.5425648354912971	-0.5425648354913074	-0.006976137979134754	0.002352260652695173	0.005994113293026019	0.09001721683498048	-4.154216439571247e-09	2.808799909701821e-09	7.117603898951344e-09	3.585885115453951e-09	-1.603600917887818e-08	3.094512350046835e-10	-1.258456460435096e-09
1.03	0.08026565446073594	0.0337004350106508	0.9262040047549723	0.2212836911252899	-0.2996927589228325	-0.2904284001657653	-0.7477632986250305	0.2778237027501617	0.2778237027503823	-0.1742790025035827	-0.1744313862996464	-0.002197445297258233	-0.004372013107089284	0.1096335925836783	0.05044810330838993	0.02853813627712617	-0.2884778411150509	0.025150188597828	-0.06753324739627194	0.05056724843809719	-0.1694465701619304	-0.1694465701619338	0.0005641187013100371	6.865981425868752e-06	0.00669331335480149	0.02911272773864693	-0.1431093312915831	0.04358871754645372	0.002427945324878586	-0.07713086169104817	0.03894722005410979	0.0271734600646201	0.2531220956444666	-33.53170845903396	-9.734377611418756	5.442819338912309	1.110605696957791	-716.1818023334586	-73.10532771414617	-23.48803068842055	-0.1860750583823936	0.2087432557328753	0.03778046656950777	-0.3559947219402778	0.08342662078569298	-0.2130329158261539	1.455043722978309	-0.5261132513144199	-0.5261132513162441	0.0001170733504355214	-0.002303795535746082	0.009135725092857804	0.09242158349909148	-4.289148931178756e-09	2.959232098771505e-09	7.235492174212623e-09	3.722654263830639e-09	-1.626151256793891e-08	3.363231957073002e-10	-1.292367970177538e-09
